#!OML:ASF H:\ManfredETheater\Project 1\Capture day 1\Session 1\subject.ASF
:FULLY-SPECIFIED
:DEGREES
181
root -7.48262 16.3896 -27.7146 -529.641 -33.3236 172.891
lowerback 16.4393 -0.177143 -8.56799
upperback -0.761938 -2.33621 -2.38931
thorax -9.89189 -0.812459 2.82796
lowerneck -15.7372 -6.42604 -7.47071
upperneck 0.106822 -8.21833 11.8263
head 3.37923 -3.78578 4.18847
rclavicle 2.95195e-014 3.57812e-014
rhumerus -52.3206 14.4046 -98.6734
rradius 80.9331
rwrist 4.47304
rhand -19.9874 9.82011
rfingers 7.12502
rthumb 6.35197 -20.0647
lclavicle 2.95195e-014 3.57812e-014
lhumerus -36.3833 -10.1723 86.0567
lradius 109.259
lwrist 4.46227
lhand -25.8173 -15.8735
lfingers 7.12502
lthumb 0.722186 14.105
rfemur -45.8466 -14.7591 22.6624
rtibia 90.1332
rfoot -13.2158 -7.47119
rtoes -24.5619
lfemur -25.9695 -7.09588 -17.8145
ltibia 60.3289
lfoot -34.9599 -4.53544
ltoes -24.0414
182
root -7.67962 16.4698 -28.139 -529.406 -32.769 172.551
lowerback 15.9741 -0.450571 -8.72475
upperback -0.947097 -2.66786 -2.29141
thorax -9.78407 -0.954849 3.0878
lowerneck -16.1026 -6.12758 -7.00165
upperneck 0.38561 -7.85289 11.124
head 3.43003 -3.61126 3.92069
rclavicle 3.69739e-014 1.59028e-015
rhumerus -53.825 14.4786 -98.2574
rradius 82.4361
rwrist 4.13126
rhand -19.5644 10.1599
rfingers 7.12502
rthumb 6.76029 -19.7122
lclavicle 3.69739e-014 1.59028e-015
lhumerus -35.9763 -10.3661 86.126
lradius 110.259
lwrist 5.04441
lhand -25.5648 -15.6583
lfingers 7.12502
lthumb 0.96608 14.3193
rfemur -47.4468 -14.6072 22.7016
rtibia 87.2997
rfoot -13.9353 -7.8068
rtoes -25.6502
lfemur -23.321 -7.45745 -18.2934
ltibia 58.7556
lfoot -34.3029 -3.71868
ltoes -26.0274
183
root -7.87526 16.5616 -28.5717 -529.173 -32.2483 172.274
lowerback 15.4425 -0.728743 -8.81405
upperback -1.14093 -2.98356 -2.18444
thorax -9.64786 -1.09421 3.30916
lowerneck -16.4204 -5.82581 -6.5151
upperneck 0.641721 -7.48733 10.4065
head 3.47018 -3.44078 3.64697
rclavicle 9.94917e-014 -3.85642e-014
rhumerus -55.3292 14.4683 -97.852
rradius 83.8587
rwrist 3.54822
rhand -19.2483 10.3403
rfingers 7.12502
rthumb 7.06545 -19.5218
lclavicle 9.94917e-014 -3.85642e-014
lhumerus -35.696 -10.5228 86.2553
lradius 111.244
lwrist 5.51163
lhand -25.2703 -15.4808
lfingers 7.12502
lthumb 1.25051 14.4953
rfemur -48.7774 -14.3679 22.6953
rtibia 84.079
rfoot -14.5353 -8.14857
rtoes -26.45
lfemur -20.722 -7.81225 -18.7473
ltibia 57.1024
lfoot -33.1628 -3.08917
ltoes -27.987
184
root -8.06867 16.6627 -29.0122 -528.964 -31.7176 172.062
lowerback 14.866 -0.987512 -8.8568
upperback -1.33712 -3.25897 -2.06851
thorax -9.49159 -1.21804 3.49868
lowerneck -16.7136 -5.53003 -6.04093
upperneck 0.899047 -7.13101 9.70885
head 3.51415 -3.27611 3.38114
rclavicle -4.51738e-014 -3.10104e-014
rhumerus -56.814 14.3457 -97.443
rradius 85.1774
rwrist 2.75663
rhand -19.0124 10.3765
rfingers 7.12502
rthumb 7.29319 -19.4778
lclavicle -4.51738e-014 -3.10104e-014
lhumerus -35.5526 -10.655 86.454
lradius 112.204
lwrist 5.82768
lhand -24.9705 -15.3366
lfingers 7.12502
lthumb 1.54005 14.6376
rfemur -49.8265 -14.0089 22.6308
rtibia 80.508
rfoot -14.9905 -8.50203
rtoes -26.8899
lfemur -18.1825 -8.08078 -19.1689
ltibia 55.4121
lfoot -31.5538 -2.75151
ltoes -29.7264
185
root -8.25976 16.7715 -29.4605 -528.797 -31.1844 171.899
lowerback 14.2578 -1.22464 -8.87473
upperback -1.51499 -3.49655 -1.94397
thorax -9.29945 -1.32804 3.66926
lowerneck -17.0019 -5.24396 -5.5973
upperneck 1.16576 -6.78621 9.05074
head 3.5687 -3.11691 3.13148
rclavicle -1.46107e-014 -4.37326e-015
rhumerus -58.25 14.111 -97.0132
rradius 86.3751
rwrist 1.8257
rhand -18.8573 10.3013
rfingers 7.12502
rthumb 7.44286 -19.5477
lclavicle -1.46107e-014 -4.37326e-015
lhumerus -35.5249 -10.7597 86.7252
lradius 113.121
lwrist 5.99065
lhand -24.6893 -15.2098
lfingers 7.12502
lthumb 1.81165 14.7622
rfemur -50.5586 -13.5574 22.4835
rtibia 76.6146
rfoot -15.2933 -8.86105
rtoes -26.9542
lfemur -15.6886 -8.2257 -19.5605
ltibia 53.7094
lfoot -29.5069 -2.74892
ltoes -31.1714
186
root -8.44788 16.8858 -29.9165 -528.679 -30.6516 171.777
lowerback 13.6403 -1.43481 -8.88089
upperback -1.67839 -3.69518 -1.81328
thorax -9.08891 -1.42208 3.82689
lowerneck -17.2849 -4.97557 -5.19739
upperneck 1.45756 -6.46131 8.44403
head 3.63946 -2.9661 2.90285
rclavicle 4.20927e-014 -2.20651e-014
rhumerus -59.6469 13.7509 -96.5596
rradius 87.4533
rwrist 0.827632
rhand -18.7874 10.1378
rfingers 7.12502
rthumb 7.51034 -19.7089
lclavicle 4.20927e-014 -2.20651e-014
lhumerus -35.6143 -10.8558 87.0733
lradius 113.976
lwrist 6.02046
lhand -24.4478 -15.0965
lfingers 7.12502
lthumb 2.04486 14.8734
rfemur -50.97 -13.0222 22.2482
rtibia 72.4299
rfoot -15.4259 -9.21245
rtoes -26.6719
lfemur -13.2474 -8.2163 -19.908
ltibia 52.0044
lfoot -27.0435 -3.09538
ltoes -32.2809
187
root -8.63262 17.004 -30.3801 -528.621 -30.1332 171.686
lowerback 13.0364 -1.62186 -8.88463
upperback -1.8263 -3.86469 -1.67922
thorax -8.87115 -1.50387 3.97769
lowerneck -17.5603 -4.72479 -4.83802
upperneck 1.78157 -6.15594 7.88566
head 3.7272 -2.82322 2.69389
rclavicle 1.88845e-014 1.21259e-014
rhumerus -61.0029 13.2746 -96.0828
rradius 88.4041
rwrist -0.153907
rhand -18.8014 9.93072
rfingers 7.12502
rthumb 7.49688 -19.9164
lclavicle 1.88845e-014 1.21259e-014
lhumerus -35.8224 -10.951 87.4871
lradius 114.772
lwrist 5.96479
lhand -24.2555 -14.9783
lfingers 7.12502
lthumb 2.23064 14.9898
rfemur -51.0517 -12.4175 21.9205
rtibia 67.9829
rfoot -15.3922 -9.53783
rtoes -26.0943
lfemur -10.8476 -8.04961 -20.1947
ltibia 50.2899
lfoot -24.1673 -3.76017
ltoes -33.0316
188
root -8.81461 17.1236 -30.8502 -528.597 -29.6302 171.602
lowerback 12.4289 -1.79092 -8.89471
upperback -1.96209 -4.01244 -1.54908
thorax -8.63938 -1.57702 4.11991
lowerneck -17.8316 -4.49151 -4.52924
upperneck 2.14474 -5.8677 7.3827
head 3.83432 -2.68646 2.50855
rclavicle 3.00662e-015 5.96354e-016
rhumerus -62.3162 12.6993 -95.5832
rradius 89.2414
rwrist -1.06965
rhand -18.8933 9.6926
rfingers 7.12502
rthumb 7.40811 -20.1577
lclavicle 3.00662e-015 5.96354e-016
lhumerus -36.1286 -11.0559 87.9569
lradius 115.495
lwrist 5.87532
lhand -24.1102 -14.8297
lfingers 7.12502
lthumb 2.37094 15.1369
rfemur -50.8457 -11.7565 21.4853
rtibia 63.3117
rfoot -15.1988 -9.81981
rtoes -25.3615
lfemur -8.51102 -7.73976 -20.4316
ltibia 48.5532
lfoot -20.8512 -4.64795
ltoes -33.4313
189
root -8.99396 17.2422 -31.3265 -528.586 -29.17 171.516
lowerback 11.8021 -1.95403 -8.91149
upperback -2.0898 -4.15296 -1.42441
thorax -8.38756 -1.64874 4.25427
lowerneck -18.0845 -4.27593 -4.2638
upperneck 2.53945 -5.59657 6.92243
head 3.95498 -2.55667 2.3421
rclavicle 8.25578e-014 -9.64106e-015
rhumerus -63.5878 12.0441 -95.0637
rradius 89.969
rwrist -1.82281
rhand -19.0996 9.44233
rfingers 7.12502
rthumb 7.20899 -20.4149
lclavicle 8.25578e-014 -9.64106e-015
lhumerus -36.5205 -11.1841 88.4702
lradius 116.144
lwrist 5.79803
lhand -24.0045 -14.6287
lfingers 7.12502
lthumb 2.47301 15.3367
rfemur -50.385 -11.0465 20.9411
rtibia 58.4594
rfoot -14.9037 -10.0656
rtoes -24.5375
lfemur -6.25773 -7.33549 -20.6114
ltibia 46.7825
lfoot -17.0579 -5.64904
ltoes -33.4222
190
root -9.17197 17.3574 -31.8077 -528.6 -28.7864 171.435
lowerback 11.1628 -2.12899 -8.90036
upperback -2.20718 -4.30485 -1.30369
thorax -8.11664 -1.7295 4.36651
lowerneck -18.3234 -4.07114 -4.0418
upperneck 2.96908 -5.33217 6.49773
head 4.08955 -2.42895 2.19329
rclavicle -9.40127e-014 -2.20154e-014
rhumerus -64.8115 11.3432 -94.5246
rradius 90.599
rwrist -2.3976
rhand -19.3942 9.19407
rfingers 7.12502
rthumb 6.92464 -20.6727
lclavicle -9.40127e-014 -2.20154e-014
lhumerus -36.98 -11.3329 89.0093
lradius 116.716
lwrist 5.76898
lhand -23.9144 -14.3598
lfingers 7.12502
lthumb 2.55998 15.6046
rfemur -49.6861 -10.3172 20.2978
rtibia 53.4785
rfoot -14.5726 -10.2941
rtoes -23.8031
lfemur -4.07926 -6.90369 -20.7257
ltibia 44.978
lfoot -12.7658 -6.61175
ltoes -32.9312
191
root -9.34908 17.466 -32.2927 -528.603 -28.4886 171.343
lowerback 10.497 -2.32106 -8.85924
upperback -2.33144 -4.47618 -1.19494
thorax -7.83749 -1.82263 4.44741
lowerneck -18.5291 -3.87763 -3.85136
upperneck 3.42946 -5.07624 6.09658
head 4.2329 -2.30497 2.05667
rclavicle -1.61419e-014 3.36443e-014
rhumerus -65.9992 10.607 -93.9737
rradius 91.1439
rwrist -2.73176
rhand -19.7866 8.94219
rfingers 7.12502
rthumb 6.54578 -20.9366
lclavicle -1.61419e-014 3.36443e-014
lhumerus -37.5139 -11.5168 89.5637
lradius 117.217
lwrist 5.81523
lhand -23.8104 -14.0205
lfingers 7.12502
lthumb 2.66042 15.9427
rfemur -48.8149 -9.55748 19.538
rtibia 48.4328
rfoot -14.2482 -10.5456
rtoes -23.285
lfemur -2.01046 -6.49948 -20.7936
ltibia 43.1616
lfoot -8.05926 -7.40758
ltoes -31.9163
192
root -9.5258 17.5657 -32.7803 -528.597 -28.2941 171.243
lowerback 9.80935 -2.53946 -8.77755
upperback -2.46295 -4.67836 -1.09245
thorax -7.55212 -1.93378 4.4985
lowerneck -18.6965 -3.69057 -3.6946
upperneck 3.91389 -4.82044 5.70782
head 4.38121 -2.18163 1.92998
rclavicle -2.74696e-014 -1.47846e-014
rhumerus -67.1477 9.87584 -93.4081
rradius 91.6216
rwrist -2.84067
rhand -20.2407 8.6888
rfingers 7.12502
rthumb 6.10742 -21.2032
lclavicle -2.74696e-014 -1.47846e-014
lhumerus -38.104 -11.7332 90.124
lradius 117.646
lwrist 5.93995
lhand -23.6798 -13.6033
lfingers 7.12502
lthumb 2.78662 16.3582
rfemur -47.7992 -8.76746 18.6579
rtibia 43.3887
rfoot -13.9636 -10.866
rtoes -23.0255
lfemur -0.059913 -6.18178 -20.8229
ltibia 41.3834
lfoot -3.08063 -7.92607
ltoes -30.35
